<mxfile host="app.diagrams.net" modified="2023-09-13T18:46:07.199Z" agent="Mozilla/5.0 (Windows NT 10.0; Win64; x64) AppleWebKit/537.36 (KHTML, like Gecko) Chrome/116.0.0.0 Safari/537.36" etag="4mIirqnpIO8YfHByxzyn" version="21.7.5" type="github">
  <diagram name="Page-1" id="mJhF4pd7eTsOtzkwQlc6">
    <mxGraphModel dx="1912" dy="1000" grid="1" gridSize="10" guides="1" tooltips="1" connect="1" arrows="1" fold="1" page="1" pageScale="1" pageWidth="850" pageHeight="1100" math="0" shadow="0">
      <root>
        <mxCell id="0" />
        <mxCell id="1" parent="0" />
        <mxCell id="XI_Q-12xs9nWpH4ZCsxw-3" value="Non-production &lt;br&gt;Infrastructure" style="rounded=0;html=1;rotation=-90;direction=east;fillColor=#e1d5e7;strokeColor=#9673a6;" vertex="1" parent="1">
          <mxGeometry x="970" y="300" width="189.85" height="130" as="geometry" />
        </mxCell>
        <mxCell id="XI_Q-12xs9nWpH4ZCsxw-12" style="edgeStyle=orthogonalEdgeStyle;rounded=0;orthogonalLoop=1;jettySize=auto;html=1;exitX=0.5;exitY=0;exitDx=0;exitDy=0;entryX=0;entryY=0.5;entryDx=0;entryDy=0;" edge="1" parent="1" source="XI_Q-12xs9nWpH4ZCsxw-4" target="XI_Q-12xs9nWpH4ZCsxw-6">
          <mxGeometry relative="1" as="geometry" />
        </mxCell>
        <mxCell id="XI_Q-12xs9nWpH4ZCsxw-13" value="Registers code&amp;nbsp;" style="edgeLabel;html=1;align=center;verticalAlign=middle;resizable=0;points=[];" vertex="1" connectable="0" parent="XI_Q-12xs9nWpH4ZCsxw-12">
          <mxGeometry x="-0.516" y="2" relative="1" as="geometry">
            <mxPoint as="offset" />
          </mxGeometry>
        </mxCell>
        <mxCell id="XI_Q-12xs9nWpH4ZCsxw-4" value="Developer" style="ellipse;whiteSpace=wrap;html=1;fillColor=#f5f5f5;fontColor=#333333;strokeColor=#666666;" vertex="1" parent="1">
          <mxGeometry x="30" y="300" width="70" height="60" as="geometry" />
        </mxCell>
        <mxCell id="XI_Q-12xs9nWpH4ZCsxw-25" style="edgeStyle=orthogonalEdgeStyle;rounded=0;orthogonalLoop=1;jettySize=auto;html=1;exitX=0.5;exitY=0;exitDx=0;exitDy=0;entryX=0.5;entryY=0;entryDx=0;entryDy=0;" edge="1" parent="1" source="XI_Q-12xs9nWpH4ZCsxw-6" target="XI_Q-12xs9nWpH4ZCsxw-21">
          <mxGeometry relative="1" as="geometry" />
        </mxCell>
        <mxCell id="XI_Q-12xs9nWpH4ZCsxw-26" value="Trigger" style="edgeLabel;html=1;align=center;verticalAlign=middle;resizable=0;points=[];" vertex="1" connectable="0" parent="XI_Q-12xs9nWpH4ZCsxw-25">
          <mxGeometry x="0.0571" y="2" relative="1" as="geometry">
            <mxPoint as="offset" />
          </mxGeometry>
        </mxCell>
        <mxCell id="XI_Q-12xs9nWpH4ZCsxw-6" value="Product" style="rounded=0;whiteSpace=wrap;html=1;fillColor=#d5e8d4;strokeColor=#82b366;" vertex="1" parent="1">
          <mxGeometry x="150" y="260" width="120" height="40" as="geometry" />
        </mxCell>
        <mxCell id="XI_Q-12xs9nWpH4ZCsxw-8" value="Change Management System" style="rounded=1;whiteSpace=wrap;html=1;fillColor=#e1d5e7;strokeColor=#9673a6;" vertex="1" parent="1">
          <mxGeometry x="280" y="530" width="480" height="40" as="geometry" />
        </mxCell>
        <mxCell id="XI_Q-12xs9nWpH4ZCsxw-10" value="Curated Templates&lt;br&gt;&lt;font style=&quot;font-size: 8px;&quot;&gt;(Protected Branch)&lt;/font&gt;" style="rounded=0;whiteSpace=wrap;html=1;fillColor=#d5e8d4;strokeColor=#82b366;" vertex="1" parent="1">
          <mxGeometry x="390" y="120" width="120" height="40" as="geometry" />
        </mxCell>
        <mxCell id="XI_Q-12xs9nWpH4ZCsxw-39" style="edgeStyle=orthogonalEdgeStyle;rounded=0;orthogonalLoop=1;jettySize=auto;html=1;exitX=0.5;exitY=1;exitDx=0;exitDy=0;entryX=0.5;entryY=0;entryDx=0;entryDy=0;" edge="1" parent="1" source="XI_Q-12xs9nWpH4ZCsxw-11" target="XI_Q-12xs9nWpH4ZCsxw-38">
          <mxGeometry relative="1" as="geometry">
            <Array as="points">
              <mxPoint x="855" y="300" />
              <mxPoint x="855" y="300" />
            </Array>
          </mxGeometry>
        </mxCell>
        <mxCell id="XI_Q-12xs9nWpH4ZCsxw-40" value="Trigger" style="edgeLabel;html=1;align=center;verticalAlign=middle;resizable=0;points=[];" vertex="1" connectable="0" parent="XI_Q-12xs9nWpH4ZCsxw-39">
          <mxGeometry x="0.0356" y="-2" relative="1" as="geometry">
            <mxPoint x="2" y="2" as="offset" />
          </mxGeometry>
        </mxCell>
        <mxCell id="XI_Q-12xs9nWpH4ZCsxw-11" value="State" style="rounded=0;whiteSpace=wrap;html=1;fillColor=#d5e8d4;strokeColor=#82b366;" vertex="1" parent="1">
          <mxGeometry x="800" y="235" width="110" height="40" as="geometry" />
        </mxCell>
        <mxCell id="XI_Q-12xs9nWpH4ZCsxw-27" style="edgeStyle=orthogonalEdgeStyle;rounded=0;orthogonalLoop=1;jettySize=auto;html=1;exitX=1;exitY=0.5;exitDx=0;exitDy=0;entryX=0;entryY=0.5;entryDx=0;entryDy=0;" edge="1" parent="1" source="XI_Q-12xs9nWpH4ZCsxw-21" target="XI_Q-12xs9nWpH4ZCsxw-22">
          <mxGeometry relative="1" as="geometry" />
        </mxCell>
        <mxCell id="XI_Q-12xs9nWpH4ZCsxw-21" value="Interpret" style="ellipse;whiteSpace=wrap;html=1;aspect=fixed;fillColor=#ffe6cc;strokeColor=#d79b00;" vertex="1" parent="1">
          <mxGeometry x="315" y="230" width="50" height="50" as="geometry" />
        </mxCell>
        <mxCell id="XI_Q-12xs9nWpH4ZCsxw-28" style="edgeStyle=orthogonalEdgeStyle;rounded=0;orthogonalLoop=1;jettySize=auto;html=1;exitX=0.5;exitY=0;exitDx=0;exitDy=0;entryX=0.5;entryY=1;entryDx=0;entryDy=0;" edge="1" parent="1" source="XI_Q-12xs9nWpH4ZCsxw-22" target="XI_Q-12xs9nWpH4ZCsxw-10">
          <mxGeometry relative="1" as="geometry" />
        </mxCell>
        <mxCell id="XI_Q-12xs9nWpH4ZCsxw-29" value="Consume" style="edgeLabel;html=1;align=center;verticalAlign=middle;resizable=0;points=[];" vertex="1" connectable="0" parent="XI_Q-12xs9nWpH4ZCsxw-28">
          <mxGeometry x="-0.1571" relative="1" as="geometry">
            <mxPoint as="offset" />
          </mxGeometry>
        </mxCell>
        <mxCell id="XI_Q-12xs9nWpH4ZCsxw-31" style="edgeStyle=orthogonalEdgeStyle;rounded=0;orthogonalLoop=1;jettySize=auto;html=1;exitX=1;exitY=0.5;exitDx=0;exitDy=0;entryX=0;entryY=0.5;entryDx=0;entryDy=0;" edge="1" parent="1" source="XI_Q-12xs9nWpH4ZCsxw-22" target="XI_Q-12xs9nWpH4ZCsxw-23">
          <mxGeometry relative="1" as="geometry" />
        </mxCell>
        <mxCell id="XI_Q-12xs9nWpH4ZCsxw-22" value="Compile" style="ellipse;whiteSpace=wrap;html=1;aspect=fixed;fillColor=#ffe6cc;strokeColor=#d79b00;" vertex="1" parent="1">
          <mxGeometry x="425" y="230" width="50" height="50" as="geometry" />
        </mxCell>
        <mxCell id="XI_Q-12xs9nWpH4ZCsxw-33" style="edgeStyle=orthogonalEdgeStyle;rounded=0;orthogonalLoop=1;jettySize=auto;html=1;exitX=0.5;exitY=1;exitDx=0;exitDy=0;entryX=0.5;entryY=0;entryDx=0;entryDy=0;" edge="1" parent="1" source="XI_Q-12xs9nWpH4ZCsxw-23" target="XI_Q-12xs9nWpH4ZCsxw-32">
          <mxGeometry relative="1" as="geometry" />
        </mxCell>
        <mxCell id="XI_Q-12xs9nWpH4ZCsxw-35" style="edgeStyle=orthogonalEdgeStyle;rounded=0;orthogonalLoop=1;jettySize=auto;html=1;exitX=1;exitY=0.5;exitDx=0;exitDy=0;" edge="1" parent="1" source="XI_Q-12xs9nWpH4ZCsxw-23" target="XI_Q-12xs9nWpH4ZCsxw-24">
          <mxGeometry relative="1" as="geometry" />
        </mxCell>
        <mxCell id="XI_Q-12xs9nWpH4ZCsxw-23" value="Evaluate" style="ellipse;whiteSpace=wrap;html=1;aspect=fixed;fillColor=#ffe6cc;strokeColor=#d79b00;" vertex="1" parent="1">
          <mxGeometry x="540" y="230" width="50" height="50" as="geometry" />
        </mxCell>
        <mxCell id="XI_Q-12xs9nWpH4ZCsxw-112" style="edgeStyle=orthogonalEdgeStyle;rounded=0;orthogonalLoop=1;jettySize=auto;html=1;exitX=1;exitY=0.5;exitDx=0;exitDy=0;entryX=0;entryY=0.5;entryDx=0;entryDy=0;" edge="1" parent="1" source="XI_Q-12xs9nWpH4ZCsxw-24" target="XI_Q-12xs9nWpH4ZCsxw-11">
          <mxGeometry relative="1" as="geometry" />
        </mxCell>
        <mxCell id="XI_Q-12xs9nWpH4ZCsxw-24" value="Record" style="ellipse;whiteSpace=wrap;html=1;aspect=fixed;fillColor=#ffe6cc;strokeColor=#d79b00;" vertex="1" parent="1">
          <mxGeometry x="680" y="230" width="50" height="50" as="geometry" />
        </mxCell>
        <mxCell id="XI_Q-12xs9nWpH4ZCsxw-32" value="Policy Engine" style="rounded=1;whiteSpace=wrap;html=1;fillColor=#e1d5e7;strokeColor=#9673a6;" vertex="1" parent="1">
          <mxGeometry x="480" y="330" width="170" height="40" as="geometry" />
        </mxCell>
        <mxCell id="XI_Q-12xs9nWpH4ZCsxw-118" style="edgeStyle=orthogonalEdgeStyle;rounded=0;orthogonalLoop=1;jettySize=auto;html=1;exitX=1;exitY=0.5;exitDx=0;exitDy=0;entryX=0.5;entryY=0;entryDx=0;entryDy=0;" edge="1" parent="1" source="XI_Q-12xs9nWpH4ZCsxw-38" target="XI_Q-12xs9nWpH4ZCsxw-3">
          <mxGeometry relative="1" as="geometry" />
        </mxCell>
        <mxCell id="XI_Q-12xs9nWpH4ZCsxw-119" value="Run Tests" style="edgeLabel;html=1;align=center;verticalAlign=middle;resizable=0;points=[];" vertex="1" connectable="0" parent="XI_Q-12xs9nWpH4ZCsxw-118">
          <mxGeometry x="0.2675" relative="1" as="geometry">
            <mxPoint x="-16" y="-5" as="offset" />
          </mxGeometry>
        </mxCell>
        <mxCell id="XI_Q-12xs9nWpH4ZCsxw-127" style="edgeStyle=orthogonalEdgeStyle;rounded=0;orthogonalLoop=1;jettySize=auto;html=1;exitX=0.5;exitY=1;exitDx=0;exitDy=0;entryX=0.5;entryY=0;entryDx=0;entryDy=0;" edge="1" parent="1" source="XI_Q-12xs9nWpH4ZCsxw-38" target="XI_Q-12xs9nWpH4ZCsxw-125">
          <mxGeometry relative="1" as="geometry" />
        </mxCell>
        <mxCell id="XI_Q-12xs9nWpH4ZCsxw-38" value="Test" style="ellipse;whiteSpace=wrap;html=1;aspect=fixed;fillColor=#ffe6cc;strokeColor=#d79b00;" vertex="1" parent="1">
          <mxGeometry x="830" y="340" width="50" height="50" as="geometry" />
        </mxCell>
        <mxCell id="XI_Q-12xs9nWpH4ZCsxw-46" value="Test Engine" style="rounded=1;whiteSpace=wrap;html=1;fillColor=#e1d5e7;strokeColor=#9673a6;" vertex="1" parent="1">
          <mxGeometry x="480" y="390" width="170" height="40" as="geometry" />
        </mxCell>
        <mxCell id="XI_Q-12xs9nWpH4ZCsxw-53" style="edgeStyle=orthogonalEdgeStyle;rounded=0;orthogonalLoop=1;jettySize=auto;html=1;exitX=0.5;exitY=1;exitDx=0;exitDy=0;" edge="1" parent="1" source="XI_Q-12xs9nWpH4ZCsxw-51" target="XI_Q-12xs9nWpH4ZCsxw-8">
          <mxGeometry relative="1" as="geometry">
            <Array as="points">
              <mxPoint x="565" y="530" />
              <mxPoint x="565" y="530" />
            </Array>
          </mxGeometry>
        </mxCell>
        <mxCell id="XI_Q-12xs9nWpH4ZCsxw-55" style="edgeStyle=orthogonalEdgeStyle;rounded=0;orthogonalLoop=1;jettySize=auto;html=1;exitX=0;exitY=0.5;exitDx=0;exitDy=0;entryX=1;entryY=0.5;entryDx=0;entryDy=0;" edge="1" parent="1" source="XI_Q-12xs9nWpH4ZCsxw-51" target="XI_Q-12xs9nWpH4ZCsxw-54">
          <mxGeometry relative="1" as="geometry" />
        </mxCell>
        <mxCell id="XI_Q-12xs9nWpH4ZCsxw-51" value="Register Change" style="ellipse;whiteSpace=wrap;html=1;aspect=fixed;fillColor=#ffe6cc;strokeColor=#d79b00;" vertex="1" parent="1">
          <mxGeometry x="540" y="450" width="50" height="50" as="geometry" />
        </mxCell>
        <mxCell id="XI_Q-12xs9nWpH4ZCsxw-75" style="edgeStyle=orthogonalEdgeStyle;rounded=0;orthogonalLoop=1;jettySize=auto;html=1;exitX=0.5;exitY=0;exitDx=0;exitDy=0;entryX=1;entryY=0.5;entryDx=0;entryDy=0;" edge="1" parent="1" source="XI_Q-12xs9nWpH4ZCsxw-54" target="XI_Q-12xs9nWpH4ZCsxw-70">
          <mxGeometry relative="1" as="geometry" />
        </mxCell>
        <mxCell id="XI_Q-12xs9nWpH4ZCsxw-76" value="Promote and &lt;br&gt;Increment" style="edgeLabel;html=1;align=center;verticalAlign=middle;resizable=0;points=[];" vertex="1" connectable="0" parent="XI_Q-12xs9nWpH4ZCsxw-75">
          <mxGeometry x="-0.0275" y="-2" relative="1" as="geometry">
            <mxPoint as="offset" />
          </mxGeometry>
        </mxCell>
        <mxCell id="XI_Q-12xs9nWpH4ZCsxw-54" value="Promote" style="ellipse;whiteSpace=wrap;html=1;aspect=fixed;fillColor=#ffe6cc;strokeColor=#d79b00;" vertex="1" parent="1">
          <mxGeometry x="315" y="450" width="50" height="50" as="geometry" />
        </mxCell>
        <mxCell id="XI_Q-12xs9nWpH4ZCsxw-62" value="" style="rounded=0;whiteSpace=wrap;html=1;fillColor=#d5e8d4;strokeColor=#82b366;" vertex="1" parent="1">
          <mxGeometry x="40" y="721" width="40" height="20" as="geometry" />
        </mxCell>
        <mxCell id="XI_Q-12xs9nWpH4ZCsxw-63" value="" style="rounded=0;whiteSpace=wrap;html=1;fillColor=#ffe6cc;strokeColor=#d79b00;" vertex="1" parent="1">
          <mxGeometry x="40" y="751" width="40" height="20" as="geometry" />
        </mxCell>
        <mxCell id="XI_Q-12xs9nWpH4ZCsxw-64" value="" style="rounded=0;whiteSpace=wrap;html=1;fillColor=#e1d5e7;strokeColor=#9673a6;" vertex="1" parent="1">
          <mxGeometry x="40" y="781" width="40" height="20" as="geometry" />
        </mxCell>
        <mxCell id="XI_Q-12xs9nWpH4ZCsxw-65" value="" style="rounded=0;whiteSpace=wrap;html=1;fillColor=#f5f5f5;fontColor=#333333;strokeColor=#666666;" vertex="1" parent="1">
          <mxGeometry x="40" y="811" width="40" height="20" as="geometry" />
        </mxCell>
        <mxCell id="XI_Q-12xs9nWpH4ZCsxw-66" value="Code Repository" style="text;html=1;align=center;verticalAlign=middle;resizable=0;points=[];autosize=1;strokeColor=none;fillColor=none;" vertex="1" parent="1">
          <mxGeometry x="80" y="716" width="110" height="30" as="geometry" />
        </mxCell>
        <mxCell id="XI_Q-12xs9nWpH4ZCsxw-67" value="Pipeline Step" style="text;html=1;align=center;verticalAlign=middle;resizable=0;points=[];autosize=1;strokeColor=none;fillColor=none;" vertex="1" parent="1">
          <mxGeometry x="90" y="746" width="90" height="30" as="geometry" />
        </mxCell>
        <mxCell id="XI_Q-12xs9nWpH4ZCsxw-68" value="Enterprise System" style="text;html=1;align=center;verticalAlign=middle;resizable=0;points=[];autosize=1;strokeColor=none;fillColor=none;" vertex="1" parent="1">
          <mxGeometry x="75" y="776" width="120" height="30" as="geometry" />
        </mxCell>
        <mxCell id="XI_Q-12xs9nWpH4ZCsxw-69" value="User" style="text;html=1;align=center;verticalAlign=middle;resizable=0;points=[];autosize=1;strokeColor=none;fillColor=none;" vertex="1" parent="1">
          <mxGeometry x="110" y="806" width="50" height="30" as="geometry" />
        </mxCell>
        <mxCell id="XI_Q-12xs9nWpH4ZCsxw-109" style="edgeStyle=orthogonalEdgeStyle;rounded=0;orthogonalLoop=1;jettySize=auto;html=1;exitX=0.5;exitY=1;exitDx=0;exitDy=0;entryX=0;entryY=0.5;entryDx=0;entryDy=0;" edge="1" parent="1" source="XI_Q-12xs9nWpH4ZCsxw-70" target="XI_Q-12xs9nWpH4ZCsxw-81">
          <mxGeometry relative="1" as="geometry" />
        </mxCell>
        <mxCell id="XI_Q-12xs9nWpH4ZCsxw-110" value="Trigger" style="edgeLabel;html=1;align=center;verticalAlign=middle;resizable=0;points=[];" vertex="1" connectable="0" parent="XI_Q-12xs9nWpH4ZCsxw-109">
          <mxGeometry x="-0.2561" y="-3" relative="1" as="geometry">
            <mxPoint as="offset" />
          </mxGeometry>
        </mxCell>
        <mxCell id="XI_Q-12xs9nWpH4ZCsxw-70" value="Product&lt;br&gt;&lt;font style=&quot;font-size: 8px;&quot;&gt;(Protected Branch)&lt;/font&gt;" style="rounded=0;whiteSpace=wrap;html=1;fillColor=#d5e8d4;strokeColor=#82b366;" vertex="1" parent="1">
          <mxGeometry x="150" y="300" width="120" height="40" as="geometry" />
        </mxCell>
        <mxCell id="XI_Q-12xs9nWpH4ZCsxw-84" style="edgeStyle=orthogonalEdgeStyle;rounded=0;orthogonalLoop=1;jettySize=auto;html=1;exitX=0.5;exitY=0;exitDx=0;exitDy=0;entryX=0.113;entryY=1.025;entryDx=0;entryDy=0;entryPerimeter=0;" edge="1" parent="1" source="XI_Q-12xs9nWpH4ZCsxw-81" target="XI_Q-12xs9nWpH4ZCsxw-8">
          <mxGeometry relative="1" as="geometry" />
        </mxCell>
        <mxCell id="XI_Q-12xs9nWpH4ZCsxw-86" style="edgeStyle=orthogonalEdgeStyle;rounded=0;orthogonalLoop=1;jettySize=auto;html=1;exitX=1;exitY=0.5;exitDx=0;exitDy=0;entryX=0;entryY=0.5;entryDx=0;entryDy=0;" edge="1" parent="1" source="XI_Q-12xs9nWpH4ZCsxw-43" target="XI_Q-12xs9nWpH4ZCsxw-85">
          <mxGeometry relative="1" as="geometry" />
        </mxCell>
        <mxCell id="XI_Q-12xs9nWpH4ZCsxw-81" value="Validate" style="ellipse;whiteSpace=wrap;html=1;aspect=fixed;fillColor=#ffe6cc;strokeColor=#d79b00;" vertex="1" parent="1">
          <mxGeometry x="310" y="620" width="50" height="50" as="geometry" />
        </mxCell>
        <mxCell id="XI_Q-12xs9nWpH4ZCsxw-88" style="edgeStyle=orthogonalEdgeStyle;rounded=0;orthogonalLoop=1;jettySize=auto;html=1;exitX=1;exitY=0.5;exitDx=0;exitDy=0;" edge="1" parent="1" source="XI_Q-12xs9nWpH4ZCsxw-85" target="XI_Q-12xs9nWpH4ZCsxw-87">
          <mxGeometry relative="1" as="geometry" />
        </mxCell>
        <mxCell id="XI_Q-12xs9nWpH4ZCsxw-98" style="edgeStyle=orthogonalEdgeStyle;rounded=0;orthogonalLoop=1;jettySize=auto;html=1;exitX=0.5;exitY=1;exitDx=0;exitDy=0;entryX=0.5;entryY=0;entryDx=0;entryDy=0;" edge="1" parent="1" source="XI_Q-12xs9nWpH4ZCsxw-85" target="XI_Q-12xs9nWpH4ZCsxw-90">
          <mxGeometry relative="1" as="geometry" />
        </mxCell>
        <mxCell id="XI_Q-12xs9nWpH4ZCsxw-85" value="Deploy" style="ellipse;whiteSpace=wrap;html=1;aspect=fixed;fillColor=#ffe6cc;strokeColor=#d79b00;" vertex="1" parent="1">
          <mxGeometry x="820" y="620" width="50" height="50" as="geometry" />
        </mxCell>
        <mxCell id="XI_Q-12xs9nWpH4ZCsxw-87" value="Production &lt;br&gt;Infrastructure" style="rounded=0;html=1;rotation=-90;direction=east;fillColor=#e1d5e7;strokeColor=#9673a6;" vertex="1" parent="1">
          <mxGeometry x="970" y="580" width="189.85" height="130" as="geometry" />
        </mxCell>
        <mxCell id="XI_Q-12xs9nWpH4ZCsxw-94" style="edgeStyle=orthogonalEdgeStyle;rounded=0;orthogonalLoop=1;jettySize=auto;html=1;exitX=0.5;exitY=1;exitDx=0;exitDy=0;entryX=0;entryY=0.5;entryDx=0;entryDy=0;" edge="1" parent="1" source="XI_Q-12xs9nWpH4ZCsxw-90" target="XI_Q-12xs9nWpH4ZCsxw-93">
          <mxGeometry relative="1" as="geometry" />
        </mxCell>
        <mxCell id="XI_Q-12xs9nWpH4ZCsxw-95" value="Cron Trigger" style="edgeLabel;html=1;align=center;verticalAlign=middle;resizable=0;points=[];" vertex="1" connectable="0" parent="XI_Q-12xs9nWpH4ZCsxw-94">
          <mxGeometry x="-0.5176" relative="1" as="geometry">
            <mxPoint as="offset" />
          </mxGeometry>
        </mxCell>
        <mxCell id="XI_Q-12xs9nWpH4ZCsxw-100" style="edgeStyle=orthogonalEdgeStyle;rounded=0;orthogonalLoop=1;jettySize=auto;html=1;exitX=0;exitY=0.5;exitDx=0;exitDy=0;entryX=1;entryY=0.5;entryDx=0;entryDy=0;" edge="1" parent="1" source="XI_Q-12xs9nWpH4ZCsxw-90" target="XI_Q-12xs9nWpH4ZCsxw-97">
          <mxGeometry relative="1" as="geometry" />
        </mxCell>
        <mxCell id="XI_Q-12xs9nWpH4ZCsxw-90" value="State&lt;br&gt;(Protected)" style="rounded=0;whiteSpace=wrap;html=1;fillColor=#d5e8d4;strokeColor=#82b366;" vertex="1" parent="1">
          <mxGeometry x="790" y="795" width="110" height="40" as="geometry" />
        </mxCell>
        <mxCell id="XI_Q-12xs9nWpH4ZCsxw-96" style="edgeStyle=orthogonalEdgeStyle;rounded=0;orthogonalLoop=1;jettySize=auto;html=1;exitX=1;exitY=0.5;exitDx=0;exitDy=0;entryX=0;entryY=0.5;entryDx=0;entryDy=0;" edge="1" parent="1" source="XI_Q-12xs9nWpH4ZCsxw-93" target="XI_Q-12xs9nWpH4ZCsxw-87">
          <mxGeometry relative="1" as="geometry" />
        </mxCell>
        <mxCell id="XI_Q-12xs9nWpH4ZCsxw-93" value="Reconcile" style="ellipse;whiteSpace=wrap;html=1;aspect=fixed;fillColor=#ffe6cc;strokeColor=#d79b00;" vertex="1" parent="1">
          <mxGeometry x="960" y="880" width="50" height="50" as="geometry" />
        </mxCell>
        <mxCell id="XI_Q-12xs9nWpH4ZCsxw-105" style="edgeStyle=orthogonalEdgeStyle;rounded=0;orthogonalLoop=1;jettySize=auto;html=1;exitX=0.5;exitY=0;exitDx=0;exitDy=0;" edge="1" parent="1" source="XI_Q-12xs9nWpH4ZCsxw-97" target="XI_Q-12xs9nWpH4ZCsxw-43">
          <mxGeometry relative="1" as="geometry" />
        </mxCell>
        <mxCell id="XI_Q-12xs9nWpH4ZCsxw-97" value="Notify" style="ellipse;whiteSpace=wrap;html=1;aspect=fixed;fillColor=#ffe6cc;strokeColor=#d79b00;" vertex="1" parent="1">
          <mxGeometry x="520" y="790" width="50" height="50" as="geometry" />
        </mxCell>
        <mxCell id="XI_Q-12xs9nWpH4ZCsxw-101" value="" style="edgeStyle=orthogonalEdgeStyle;rounded=0;orthogonalLoop=1;jettySize=auto;html=1;exitX=1;exitY=0.5;exitDx=0;exitDy=0;entryX=0;entryY=0.5;entryDx=0;entryDy=0;" edge="1" parent="1" source="XI_Q-12xs9nWpH4ZCsxw-81" target="XI_Q-12xs9nWpH4ZCsxw-43">
          <mxGeometry relative="1" as="geometry">
            <mxPoint x="360" y="645" as="sourcePoint" />
            <mxPoint x="820" y="645" as="targetPoint" />
          </mxGeometry>
        </mxCell>
        <mxCell id="XI_Q-12xs9nWpH4ZCsxw-103" style="edgeStyle=orthogonalEdgeStyle;rounded=0;orthogonalLoop=1;jettySize=auto;html=1;exitX=0.5;exitY=0;exitDx=0;exitDy=0;entryX=0.552;entryY=0.975;entryDx=0;entryDy=0;entryPerimeter=0;" edge="1" parent="1" source="XI_Q-12xs9nWpH4ZCsxw-43" target="XI_Q-12xs9nWpH4ZCsxw-8">
          <mxGeometry relative="1" as="geometry" />
        </mxCell>
        <mxCell id="XI_Q-12xs9nWpH4ZCsxw-104" value="Approve" style="edgeLabel;html=1;align=center;verticalAlign=middle;resizable=0;points=[];" vertex="1" connectable="0" parent="XI_Q-12xs9nWpH4ZCsxw-103">
          <mxGeometry y="-1" relative="1" as="geometry">
            <mxPoint as="offset" />
          </mxGeometry>
        </mxCell>
        <mxCell id="XI_Q-12xs9nWpH4ZCsxw-43" value="Change Owner" style="ellipse;whiteSpace=wrap;html=1;fillColor=#f5f5f5;fontColor=#333333;strokeColor=#666666;" vertex="1" parent="1">
          <mxGeometry x="510" y="615" width="70" height="60" as="geometry" />
        </mxCell>
        <mxCell id="XI_Q-12xs9nWpH4ZCsxw-128" style="edgeStyle=orthogonalEdgeStyle;rounded=0;orthogonalLoop=1;jettySize=auto;html=1;exitX=0;exitY=0.5;exitDx=0;exitDy=0;entryX=1;entryY=0.5;entryDx=0;entryDy=0;" edge="1" parent="1" source="XI_Q-12xs9nWpH4ZCsxw-125" target="XI_Q-12xs9nWpH4ZCsxw-46">
          <mxGeometry relative="1" as="geometry" />
        </mxCell>
        <mxCell id="XI_Q-12xs9nWpH4ZCsxw-129" value="Post Results" style="edgeLabel;html=1;align=center;verticalAlign=middle;resizable=0;points=[];" vertex="1" connectable="0" parent="XI_Q-12xs9nWpH4ZCsxw-128">
          <mxGeometry x="0.0329" y="1" relative="1" as="geometry">
            <mxPoint as="offset" />
          </mxGeometry>
        </mxCell>
        <mxCell id="XI_Q-12xs9nWpH4ZCsxw-130" style="edgeStyle=orthogonalEdgeStyle;rounded=0;orthogonalLoop=1;jettySize=auto;html=1;exitX=0.5;exitY=1;exitDx=0;exitDy=0;entryX=1;entryY=0.5;entryDx=0;entryDy=0;" edge="1" parent="1" source="XI_Q-12xs9nWpH4ZCsxw-125" target="XI_Q-12xs9nWpH4ZCsxw-51">
          <mxGeometry relative="1" as="geometry" />
        </mxCell>
        <mxCell id="XI_Q-12xs9nWpH4ZCsxw-125" value="Record" style="ellipse;whiteSpace=wrap;html=1;aspect=fixed;fillColor=#ffe6cc;strokeColor=#d79b00;" vertex="1" parent="1">
          <mxGeometry x="830" y="420" width="50" height="50" as="geometry" />
        </mxCell>
        <mxCell id="XI_Q-12xs9nWpH4ZCsxw-131" value="&lt;b&gt;1&lt;/b&gt;" style="rhombus;whiteSpace=wrap;html=1;fillColor=#cdeb8b;strokeColor=#36393d;" vertex="1" parent="1">
          <mxGeometry x="110" y="245" width="30" height="30" as="geometry" />
        </mxCell>
        <mxCell id="XI_Q-12xs9nWpH4ZCsxw-134" value="&lt;b&gt;2&lt;/b&gt;" style="rhombus;whiteSpace=wrap;html=1;fillColor=#cdeb8b;strokeColor=#36393d;" vertex="1" parent="1">
          <mxGeometry x="150" y="220" width="30" height="30" as="geometry" />
        </mxCell>
        <mxCell id="XI_Q-12xs9nWpH4ZCsxw-135" value="&lt;b&gt;3&lt;/b&gt;" style="rhombus;whiteSpace=wrap;html=1;fillColor=#cdeb8b;strokeColor=#36393d;" vertex="1" parent="1">
          <mxGeometry x="300" y="170" width="30" height="30" as="geometry" />
        </mxCell>
        <mxCell id="XI_Q-12xs9nWpH4ZCsxw-142" value="&lt;b&gt;4&lt;/b&gt;" style="rhombus;whiteSpace=wrap;html=1;fillColor=#cdeb8b;strokeColor=#36393d;" vertex="1" parent="1">
          <mxGeometry x="475" y="170" width="30" height="30" as="geometry" />
        </mxCell>
        <mxCell id="XI_Q-12xs9nWpH4ZCsxw-143" value="&lt;b&gt;5&lt;/b&gt;" style="rhombus;whiteSpace=wrap;html=1;fillColor=#cdeb8b;strokeColor=#36393d;" vertex="1" parent="1">
          <mxGeometry x="470" y="265" width="30" height="30" as="geometry" />
        </mxCell>
        <mxCell id="XI_Q-12xs9nWpH4ZCsxw-144" value="&lt;b&gt;6&lt;/b&gt;" style="rhombus;whiteSpace=wrap;html=1;fillColor=#cdeb8b;strokeColor=#36393d;" vertex="1" parent="1">
          <mxGeometry x="590" y="290" width="30" height="30" as="geometry" />
        </mxCell>
        <mxCell id="XI_Q-12xs9nWpH4ZCsxw-145" value="&lt;b&gt;7&lt;/b&gt;" style="rhombus;whiteSpace=wrap;html=1;fillColor=#cdeb8b;strokeColor=#36393d;" vertex="1" parent="1">
          <mxGeometry x="750" y="205" width="30" height="30" as="geometry" />
        </mxCell>
        <mxCell id="XI_Q-12xs9nWpH4ZCsxw-146" value="&lt;b&gt;8&lt;/b&gt;" style="rhombus;whiteSpace=wrap;html=1;fillColor=#cdeb8b;strokeColor=#36393d;" vertex="1" parent="1">
          <mxGeometry x="800" y="395" width="30" height="30" as="geometry" />
        </mxCell>
        <mxCell id="XI_Q-12xs9nWpH4ZCsxw-147" value="&lt;b&gt;9&lt;/b&gt;" style="rhombus;whiteSpace=wrap;html=1;fillColor=#cdeb8b;strokeColor=#36393d;" vertex="1" parent="1">
          <mxGeometry x="470" y="480" width="30" height="30" as="geometry" />
        </mxCell>
        <mxCell id="XI_Q-12xs9nWpH4ZCsxw-148" value="&lt;b&gt;10&lt;/b&gt;" style="rhombus;whiteSpace=wrap;html=1;fillColor=#cdeb8b;strokeColor=#36393d;" vertex="1" parent="1">
          <mxGeometry x="300" y="390" width="30" height="30" as="geometry" />
        </mxCell>
        <mxCell id="XI_Q-12xs9nWpH4ZCsxw-149" value="&lt;b&gt;11&lt;/b&gt;" style="rhombus;whiteSpace=wrap;html=1;fillColor=#cdeb8b;strokeColor=#36393d;" vertex="1" parent="1">
          <mxGeometry x="300" y="420" width="30" height="30" as="geometry" />
        </mxCell>
        <mxCell id="XI_Q-12xs9nWpH4ZCsxw-150" value="&lt;b&gt;12&lt;/b&gt;" style="rhombus;whiteSpace=wrap;html=1;fillColor=#cdeb8b;strokeColor=#36393d;" vertex="1" parent="1">
          <mxGeometry x="365" y="610" width="30" height="30" as="geometry" />
        </mxCell>
        <mxCell id="XI_Q-12xs9nWpH4ZCsxw-151" value="&lt;b&gt;13&lt;/b&gt;" style="rhombus;whiteSpace=wrap;html=1;fillColor=#cdeb8b;strokeColor=#36393d;" vertex="1" parent="1">
          <mxGeometry x="860" y="660" width="30" height="30" as="geometry" />
        </mxCell>
        <mxCell id="XI_Q-12xs9nWpH4ZCsxw-152" value="&lt;b&gt;14&lt;/b&gt;" style="rhombus;whiteSpace=wrap;html=1;fillColor=#cdeb8b;strokeColor=#36393d;" vertex="1" parent="1">
          <mxGeometry x="560" y="760" width="30" height="30" as="geometry" />
        </mxCell>
        <mxCell id="XI_Q-12xs9nWpH4ZCsxw-153" value="&lt;b&gt;15&lt;/b&gt;" style="rhombus;whiteSpace=wrap;html=1;fillColor=#cdeb8b;strokeColor=#36393d;" vertex="1" parent="1">
          <mxGeometry x="970" y="840" width="30" height="30" as="geometry" />
        </mxCell>
        <mxCell id="XI_Q-12xs9nWpH4ZCsxw-154" value="&lt;b&gt;#&lt;/b&gt;" style="rhombus;whiteSpace=wrap;html=1;fillColor=#cdeb8b;strokeColor=#36393d;" vertex="1" parent="1">
          <mxGeometry x="45" y="841" width="30" height="30" as="geometry" />
        </mxCell>
        <mxCell id="XI_Q-12xs9nWpH4ZCsxw-155" value="Requirement &lt;br&gt;Alignment" style="text;html=1;align=center;verticalAlign=middle;resizable=0;points=[];autosize=1;strokeColor=none;fillColor=none;" vertex="1" parent="1">
          <mxGeometry x="80" y="836" width="90" height="40" as="geometry" />
        </mxCell>
      </root>
    </mxGraphModel>
  </diagram>
</mxfile>
